<?xml version="1.0" encoding="UTF-8" standalone="no"?>
<!-- Created with Inkscape (http://www.inkscape.org/) -->

<svg
   version="1.1"
   id="svg1"
   width="563.68353"
   height="393.46823"
   viewBox="0 0 563.68353 393.46823"
   sodipodi:docname="logo esigenta.svg"
   inkscape:version="1.4.3 (0d15f75, 2025-12-25)"
   xmlns:inkscape="http://www.inkscape.org/namespaces/inkscape"
   xmlns:sodipodi="http://sodipodi.sourceforge.net/DTD/sodipodi-0.dtd"
   xmlns="http://www.w3.org/2000/svg"
   xmlns:svg="http://www.w3.org/2000/svg">
  <defs
     id="defs1" />
  <sodipodi:namedview
     id="namedview1"
     pagecolor="#ffffff"
     bordercolor="#000000"
     borderopacity="0.25"
     inkscape:showpageshadow="2"
     inkscape:pageopacity="0.0"
     inkscape:pagecheckerboard="0"
     inkscape:deskcolor="#d1d1d1"
     inkscape:zoom="0.87176003"
     inkscape:cx="278.74643"
     inkscape:cy="103.81297"
     inkscape:window-width="1920"
     inkscape:window-height="991"
     inkscape:window-x="-9"
     inkscape:window-y="-9"
     inkscape:window-maximized="1"
     inkscape:current-layer="g1" />
  <g
     inkscape:groupmode="layer"
     inkscape:label="Image"
     id="g1"
     transform="translate(-351.13575,-467.27861)">
    <path
       d="m 424.22171,533.04683 c -10.80394,0.0473 -13.65332,0.4277 -21,2.79883 -25.61397,8.26688 -44.42319,28.84254 -50.61133,55.36328 -1.36907,5.86758 -1.55279,18.81461 -1.45117,102.71484 0.13053,107.77644 -0.15008,103.30224 7.49023,119.00781 10.02699,20.61168 29.76681,35.51623 53.07227,40.07422 8.38869,1.64062 22.5224,1.16892 31,-1.03515 3.3,-0.85796 10.275,-3.64336 15.5,-6.18946 8.10285,-3.94846 10.82915,-5.96981 18.53125,-13.74414 10.20567,-10.30138 15.76014,-19.66687 19.66992,-33.16992 l 2.29883,-7.94336 v -97.5 -97.5 l -2.31446,-8 c -3.93375,-13.59703 -9.4377,-22.74668 -20.18554,-33.55273 -7.93504,-7.97802 -10.92137,-10.24093 -18.13282,-13.74024 -12.82523,-6.22337 -19.18549,-7.64828 -33.86718,-7.58398 z"
       style="fill:#202020;fill-opacity:1"
       id="path118" />
    <path
       d="m 843.16092,533.77596 c -8.73971,-0.21503 -17.70255,1.15132 -26.55664,4.23047 -10.61173,3.6904 -17.42537,8.19254 -27.32812,18.0625 -10.21097,10.17717 -15.73142,19.45638 -19.66992,33.05859 l -2.30078,7.94336 v 97.5 c 0,110.12361 -0.52781,102.29127 8.08984,119.83789 10.11842,20.60238 29.70837,35.33776 52.87305,39.76953 8.35972,1.59935 22.45583,1.10686 31.03711,-1.08593 21.13506,-5.40068 40.3689,-21.72448 49.60742,-42.09961 6.04206,-13.32548 5.91669,-10.83376 5.90429,-116.51368 -0.0128,-109.15128 0.34953,-103.72263 -8,-119.77148 -13.22807,-25.42603 -37.43711,-40.28656 -63.65625,-40.93164 z"
       style="fill:#202020;fill-opacity:1"
       id="path117" />
    <path
       d="m 632.00391,467.38427 c -41.99041,-2.11243 -79.47114,27.79048 -76.00679,59.24557 -0.68011,96.18581 0.0707,192.37545 0.0752,288.56291 7.80109,22.26781 31.74987,41.99996 62.98365,44.90693 38.51153,4.79247 78.80651,-17.64505 83.17345,-47.00411 1.74983,-85.73681 0.92162,-171.50209 1.18541,-257.25022 -1.2737,-17.13243 2.29493,-35.00685 -4.45586,-51.60464 -10.24782,-20.52932 -37.27268,-36.97099 -66.95501,-36.85644 z"
       style="fill:#a35a39;stroke-width:0.869202;fill-opacity:1"
       id="path116" />
  </g>
</svg>
