<?xml version="1.0" encoding="UTF-8" standalone="no"?>
<svg xmlns="http://www.w3.org/2000/svg" viewBox="0 0 360 360">
  <g transform="translate(47.126,36.522)">
    <g transform="translate(-227.58603,-295.03752)">
    <path id="path14" fill="#d7f45b"
       d="m 487.34369,472.22871 c -1.3208,-1.01392 -17.17041,-11.65279 -35.22137,-23.64193 -18.05095,-11.98914 -37.68288,-25.06583 -43.62648,-29.0593 -5.94361,-3.99348 -12.69771,-8.44499 -15.00911,-9.89226 -2.3114,-1.44727 -4.20255,-3.12691 -4.20255,-3.73253 0,-0.60563 1.13266,-2.71269 2.517,-4.68235 4.20806,-5.98725 5.80535,-11.64212 5.84216,-20.68282 0.0378,-9.27545 -1.58754,-14.77201 -6.29122,-21.27606 -4.13535,-5.71821 -9.01878,-8.28864 -17.23448,-9.07151 l -6.84682,-0.65243 -0.21393,-25.28353 c -0.21969,-25.96491 0.10088,-29.21647 2.88047,-29.21647 0.77523,0 4.09459,2.07548 7.37635,4.61218 15.42738,11.9249 56.85001,43.38782 57.1224,43.38782 0.16844,0 0.43873,-3.64408 0.60062,-8.09796 0.43297,-11.91065 0.41994,-11.90204 18.01114,-11.90204 19.19205,0 17.88586,-1.92541 17.88586,26.36514 v 21.45605 l 7.4045,5.75703 c 9.03238,7.02271 10.68083,8.80371 12.88568,13.92178 1.68081,3.90161 1.72318,4.97156 1.72318,43.5 0,38.74422 -0.0307,39.50511 -1.60096,39.76734 -0.88054,0.14703 -2.68164,-0.56224 -4.00244,-1.57615 z" />
    <path id="path13" fill="#0a7f82"
       d="m 228.11969,473.37085 c -0.29351,-0.36667 -0.53366,-17.60999 -0.53366,-38.3185 0,-41.83998 0.28011,-44.71928 4.98995,-51.2934 1.68558,-2.35277 11.71689,-10.2888 28.23021,-22.33365 14.08855,-10.27621 39.93238,-29.41737 57.43073,-42.5359 17.49836,-13.11854 32.52482,-23.85188 33.39212,-23.85188 3.02547,0 3.29108,2.8571 3.19938,34.41441 -0.11317,38.9454 -0.88709,37.0132 14.84386,37.05961 7.54028,0.0222 9.11191,0.31332 10.93911,2.02598 3.19973,2.99912 4.67035,6.77776 4.67035,12 0,11.98231 -8.21034,17.33534 -19.26093,12.55787 -3.45907,-1.49544 -5.94938,-1.9813 -7.96973,-1.55488 -1.61624,0.34111 -22.35643,13.46107 -46.08931,29.15546 -85.7265,56.69031 -82.33395,54.5589 -83.84208,52.67488 z" />
    <path id="path1" fill="#075a60"
       d="m 237.59209,580.14165 c -1.76106,-1.01856 -4.17854,-3.15256 -5.37217,-4.74221 -4.36482,-5.81296 -4.63389,-8.47422 -4.63389,-45.83266 0,-31.35582 0.11723,-34.3439 1.40085,-35.70849 0.77046,-0.81906 8.96544,-6.46336 18.21105,-12.5429 37.97235,-24.96908 86.42641,-57.07406 98.05952,-64.97289 6.82414,-4.63355 13.32949,-8.66182 14.45632,-8.9517 1.44299,-0.37121 4.04657,0.78442 8.80534,3.90837 17.99415,11.81248 52.88942,34.93266 79.60078,52.74023 16.28989,10.85992 32.91361,21.83416 36.9416,24.38721 4.02798,2.55305 7.54012,5.34673 7.80474,6.20819 0.26461,0.86146 0.47519,17.61699 0.46795,37.23451 -0.013,35.09297 -0.0421,35.73205 -1.80788,39.62662 -0.98711,2.17712 -3.35326,5.32712 -5.25812,7 l -3.46341,3.04159 -43.35823,0.30742 c -28.40267,0.20138 -44.34116,-0.0515 -46.20787,-0.73318 -1.5673,-0.57234 -3.72861,-2.20856 -4.80292,-3.63606 l -1.95327,-2.59545 -0.40025,-36.17137 -0.40024,-36.17136 -2.22518,-5.66055 c -2.44823,-6.22796 -6.66419,-11.53135 -11.94737,-15.02898 -2.83372,-1.876 -4.70466,-2.27916 -10.64251,-2.29331 -6.05891,-0.0144 -7.83536,0.37361 -11.17302,2.44065 -4.78778,2.96509 -9.32402,8.43985 -11.80774,14.2507 -1.77903,4.16217 -1.84709,5.30093 -2.25835,37.79149 -0.30452,24.05695 -0.71442,34.34564 -1.45418,36.5 -1.4727,4.28895 -4.04333,7.48575 -7.72761,9.60995 -2.98173,1.71915 -6.03729,1.84612 -44.42696,1.84612 -38.44008,0 -41.44133,-0.1251 -44.42698,-1.85194 z" />
    </g>
  </g>
</svg>
